<?xml version="1.0" encoding="utf-8"?>
<!-- Generator: Adobe Illustrator 17.1.0, SVG Export Plug-In . SVG Version: 6.00 Build 0)  -->
<!DOCTYPE svg PUBLIC "-//W3C//DTD SVG 1.1//EN" "http://www.w3.org/Graphics/SVG/1.1/DTD/svg11.dtd">
<svg version="1.1" id="Layer_1" xmlns="http://www.w3.org/2000/svg" xmlns:xlink="http://www.w3.org/1999/xlink" x="0px" y="0px"
	 viewBox="0 0 595.3 841.9" enable-background="new 0 0 595.3 841.9" xml:space="preserve">
<g>
	<path d="M541.7,345.8c0.6,19.8-3.8,39.8-3.8,39.8c-6.8,31-23.2,57-43.2,81.2c-18.8,22.8-41.2,41.4-63.4,60.6
		c-30.4,26.2-60.8,52.2-91,78.8c-6.6,5.8-12.2,13-18.6,19.4c-3.4,3.4-7.2,6.4-11,9.6c-2.2,1.8-10.8,0-13-2c-2.8-2.6-6.6-4.4-9.4-7.2
		c-8.2-8.2-15.8-17.4-24.4-25.2c-19.2-17.2-38.6-34-58.4-50.6c-30-25.4-61.2-49.6-87.2-79.2c-12.4-14.2-23.4-29.4-32.2-46.4
		C76.6,406,70.2,386.8,67.8,366c0,0-1.2-11-0.6-21.2c0.4-10.6,2.4-19.6,2.4-19.6c5.2-34.6,21.8-62.2,50-82.8c13.2-9.6,28-16,43.6-20
		c21-5.2,42.6-6.2,63.6-0.8C247,227,265.2,237.2,281,251c6.6,5.8,12.8,12,19.2,18c3.2,3.2,5.4,3.2,8.4-0.2
		c14.6-16,31.6-28.6,50.8-38.6c21.8-11.2,44.4-13.4,68.4-11c16,1.6,31,6.2,45.2,13.2c16.2,8,30,19.4,41.2,33.8
		c9,11.6,15.4,24.6,20.6,38.2C535.5,304.6,541.3,326,541.7,345.8z"/>
</g>
</svg>
