<?xml version="1.0" encoding="utf-8"?>
<!-- Generator: Adobe Illustrator 17.1.0, SVG Export Plug-In . SVG Version: 6.00 Build 0)  -->
<!DOCTYPE svg PUBLIC "-//W3C//DTD SVG 1.1//EN" "http://www.w3.org/Graphics/SVG/1.1/DTD/svg11.dtd">
<svg version="1.1" id="Layer_1" xmlns="http://www.w3.org/2000/svg" xmlns:xlink="http://www.w3.org/1999/xlink" x="0px" y="0px"
	 viewBox="0 0 297.6 283.1" enable-background="new 0 0 297.6 283.1" xml:space="preserve">
<g>
	<path d="M270.8,104c0.3,9.9-1.9,19.9-1.9,19.9c-3.4,15.5-11.6,28.5-21.6,40.6c-9.4,11.4-20.6,20.7-31.7,30.3
		c-15.2,13.1-30.4,26.1-45.5,39.4c-3.3,2.9-6.1,6.5-9.3,9.7c-1.7,1.7-3.6,3.2-5.5,4.8c-1.1,0.9-5.4,0-6.5-1
		c-1.4-1.3-3.3-2.2-4.7-3.6c-4.1-4.1-7.9-8.7-12.2-12.6c-9.6-8.6-19.3-17-29.2-25.3c-15-12.7-30.6-24.8-43.6-39.6
		c-6.2-7.1-11.7-14.7-16.1-23.2c-4.7-9.3-7.9-18.9-9.1-29.3c0,0-0.6-5.5-0.3-10.6c0.2-5.3,1.2-9.8,1.2-9.8
		c2.6-17.3,10.9-31.1,25-41.4c6.6-4.8,14-8,21.8-10c10.5-2.6,21.3-3.1,31.8-0.4c10.1,2.7,19.2,7.8,27.1,14.7c3.3,2.9,6.4,6,9.6,9
		c1.6,1.6,2.7,1.6,4.2-0.1c7.3-8,15.8-14.3,25.4-19.3c10.9-5.6,22.2-6.7,34.2-5.5c8,0.8,15.5,3.1,22.6,6.6c8.1,4,15,9.7,20.6,16.9
		c4.5,5.8,7.7,12.3,10.3,19.1C267.7,83.4,270.6,94.1,270.8,104z M248.4,108.7c0.4-9.8-0.9-18.5-5.7-26.7c-3.7-6.3-9-10.8-15.1-14.3
		c-5.8-3.3-12.3-4.4-18.8-5.1c-2.4-0.3-4.8-0.3-7.1,0.2c-7.1,1.2-13.5,4.3-19.4,8.4c-7.3,5.1-13.7,11.2-19.4,18.1
		c-2.2,2.7-4.6,5.2-8.2,6c-4.8,1-8.3-1.3-11.4-4.6c-3.2-3.5-6.3-7.2-9.7-10.6c-6.4-6.3-13.6-11.6-22-15c-12.1-4.9-24-2.7-34.9,3.2
		c-10,5.5-16.4,14.1-19,25.7c-3.5,15.5-0.1,29.6,7.5,43c4.5,8,10.5,14.9,17.2,21.1c9.4,8.7,19.1,17.2,28.8,25.7
		c13.1,11.5,26.5,22.6,38.6,35.2c2,2.1,3.5,2,5.5-0.1c15.3-15.8,32.5-29.6,49.1-44c11-9.5,21.8-19,30.5-30.7
		C242.9,133.5,248.4,121.8,248.4,108.7z"/>
</g>
</svg>
