<?xml version="1.0" encoding="utf-8"?>
<!-- Generator: Adobe Illustrator 17.1.0, SVG Export Plug-In . SVG Version: 6.00 Build 0)  -->
<!DOCTYPE svg PUBLIC "-//W3C//DTD SVG 1.1//EN" "http://www.w3.org/Graphics/SVG/1.1/DTD/svg11.dtd">
<svg version="1.1" id="Layer_1" xmlns="http://www.w3.org/2000/svg" xmlns:xlink="http://www.w3.org/1999/xlink" x="0px" y="0px"
	 viewBox="0 0 595.3 841.9" enable-background="new 0 0 595.3 841.9" xml:space="preserve">
<path d="M459.5,371.4c-9.2-11.3-22.7-17.8-37.2-17.8l-1,0c-3.8,0.1-140.8,0-147.7,0c-8.8,0-15,5.8-15.6,14.4
	c-0.6,8.9,5.1,15.2,14.6,16.3c0.9,0.1,145.6,0.2,145.6,0.2c3.4,0,6.7,0,9.7,0.5c7.7,1.3,12.5,7.3,11.5,13.9l-19.8,112.6
	c-2.5,12.6-3.9,13.7-16.9,13.7l-84,0l-91.9,0c-13.3,0-15.3-1.7-17.7-15c-4.4-24.6-8.8-49.1-13.2-73.7c-7.6-42-15.4-85.5-22.9-128.3
	c-2-11.6-8.4-16.9-20.1-16.9H83.5c-8.4,0-15.2,6.9-15.2,15.5c0,8.5,6.8,15.3,15.2,15.3H144c2.8,14.8,11.9,64.6,20.1,109.3
	c4.8,26.1,9.4,51.8,13,70.9c0.5,2.8,0.9,5.7,1.4,8.6c2.4,16.3,5.1,34.6,24.6,43.2c-10.3,25.4-6.7,45.2,11,60.5
	c9,7.8,20.6,12.1,32.7,12.1c10,0,19.5-2.9,27.7-8.4c19.5-13.1,25.2-32.2,17.8-59.8h41.5c-7.7,24.8-2.3,44.4,16,58.3
	c8.4,6.4,19,9.9,29.8,9.9c11.2,0,22.1-3.8,30.7-10.6c13.1-10.3,25.6-29.3,13.8-61.7c14.2-6.7,22.4-19,25.5-38.1
	c6.2-37.5,12.6-71.7,19.5-104.5C472,397,468.7,382.7,459.5,371.4z M380.4,556.6c5,0,9.8,2,13.3,5.5c3.6,3.7,5.6,8.6,5.6,13.9
	c-0.1,10.7-8.2,18.8-18.9,18.8l-0.5,0c-10.6-0.3-18.5-8.5-18.5-19.2c0.1-10.6,8.3-18.9,18.8-19L380.4,556.6z M265.8,575.9
	c-0.1,10.3-8.6,18.8-19.3,19c-5.2,0-10.1-2-13.8-5.7c-3.6-3.6-5.5-8.4-5.5-13.4c0.1-10.2,8.8-18.9,19-19.1l0.3,0
	c4.9,0,9.9,2.1,13.5,5.8C263.8,566.1,265.8,571,265.8,575.9z"/>
</svg>
